<svg width="300" height="600" xmlns="http://www.w3.org/2000/svg">
  <rect width="300" height="600" fill="#1f1f1f" rx="20"/>
  <rect x="10" y="40" width="280" height="520" fill="#2d2d2d" rx="10"/>
  
  <-v Status bar -->
  <rect x="20" y="50" width="260" height="30" fill="#000000"/>
  <text x="25" y="70" fill="#ffffff" font-family="Arial" font-size="12">📱 Android Push Demo</text>
  
  <-v App header -->
  <rect x="20" y="90" width="260" height="50" fill="#ff9900"/>
  <text x="150" y="120" fill="#ffffff" font-family="Arial" font-size="16" text-anchor="middle">Push Notifications</text>
  
  <-v Notification card -->
  <rect x="30" y="160" width="240" height="80" fill="#ffffff" rx="5"/>
  <circle cx="50" cy="185" r="8" fill="#ff9900"/>
  <text x="70" y="185" fill="#333" font-family="Arial" font-size="12" font-weight="bold">New Message</text>
  <text x="70" y="200" fill="#666" font-family="Arial" font-size="10">AWS Push Notification</text>
  <text x="70" y="215" fill="#999" font-family="Arial" font-size="9">Just now</text>
  
  <-v Buttons -->
  <rect x="50" y="260" width="200" height="40" fill="#4caf50" rx="20"/>
  <text x="150" y="285" fill="#ffffff" font-family="Arial" font-size="12" text-anchor="middle">Subscribe to Topic</text>
  
  <rect x="50" y="320" width="200" height="40" fill="#2196f3" rx="20"/>
  <text x="150" y="345" fill="#ffffff" font-family="Arial" font-size="12" text-anchor="middle">Send Test Notification</text>
  
  <-v Token display -->
  <rect x="30" y="380" width="240" height="60" fill="#f5f5f5" rx="5"/>
  <text x="40" y="400" fill="#333" font-family="Arial" font-size="10" font-weight="bold">Device Token:</text>
  <text x="40" y="415" fill="#666" font-family="monospace" font-size="8">fGzj7X2mQ4...</text>
  <text x="40" y="430" fill="#666" font-family="monospace" font-size="8">...kL9pM3nR5s</text>
</svg>
