<svg width="300" height="600" xmlns="http://www.w3.org/2000/svg">
  <rect width="300" height="600" fill="#039be5" rx="20"/>
  
  <-v Dashboard background -->
  <rect x="10" y="40" width="280" height="520" fill="#ffffff" rx="10"/>
  
  <-v Header -->
  <rect x="20" y="50" width="260" height="40" fill="#232f3e"/>
  <text x="30" y="75" fill="#ffffff" font-family="Arial" font-size="14" font-weight="bold">AWS Console</text>
  <text x="250" y="75" fill="#ff9900" font-family="Arial" font-size="12" text-anchor="end">AWS</text>
  
  <-v SNS Section -->
  <rect x="25" y="100" width="250" height="80" fill="#fff3cd" rx="5"/>
  <text x="30" y="120" fill="#856404" font-family="Arial" font-size="12" font-weight="bold">📨 SNS Topic</text>
  <text x="30" y="140" fill="#856404" font-family="Arial" font-size="10">push-notifications</text>
  <text x="30" y="155" fill="#856404" font-family="Arial" font-size="9">Subscribers: 1,247</text>
  <text x="30" y="170" fill="#856404" font-family="Arial" font-size="9">Messages sent: 15,432</text>
  
  <-v Lambda Section -->
  <rect x="25" y="190" width="250" height="80" fill="#d4edda" rx="5"/>
  <text x="30" y="210" fill="#155724" font-family="Arial" font-size="12" font-weight="bold">⚡ Lambda Function</text>
  <text x="30" y="230" fill="#155724" font-family="Arial" font-size="10">push-notification-handler</text>
  <text x="30" y="245" fill="#155724" font-family="Arial" font-size="9">Runtime: Node.js 18.x</text>
  <text x="30" y="260" fill="#155724" font-family="Arial" font-size="9">Last execution: 2 min ago ✓</text>
  
  <-v CloudWatch Section -->
  <rect x="25" y="280" width="250" height="80" fill="#cce5ff" rx="5"/>
  <text x="30" y="300" fill="#0066cc" font-family="Arial" font-size="12" font-weight="bold">📊 CloudWatch</text>
  <text x="30" y="320" fill="#0066cc" font-family="Arial" font-size="10">Monitoring & Logs</text>
  <text x="30" y="335" fill="#0066cc" font-family="Arial" font-size="9">Success rate: 99.8%</text>
  <text x="30" y="350" fill="#0066cc" font-family="Arial" font-size="9">Avg duration: 145ms</text>
  
  <-v Firebase Section -->
  <rect x="25" y="370" width="250" height="80" fill="#ffecb3" rx="5"/>
  <text x="30" y="390" fill="#f57c00" font-family="Arial" font-size="12" font-weight="bold">🔥 Firebase FCM</text>
  <text x="30" y="410" fill="#f57c00" font-family="Arial" font-size="10">Cloud Messaging</text>
  <text x="30" y="425" fill="#f57c00" font-family="Arial" font-size="9">Active tokens: 1,247</text>
  <text x="30" y="440" fill="#f57c00" font-family="Arial" font-size="9">Delivery rate: 98.5%</text>
  
  <-v Status indicators -->
  <circle cx="260" cy="120" r="5" fill="#28a745"/>
  <circle cx="260" cy="210" r="5" fill="#28a745"/>
  <circle cx="260" cy="300" r="5" fill="#28a745"/>
  <circle cx="260" cy="390" r="5" fill="#28a745"/>
  
  <-v Footer -->
  <text x="150" y="500" fill="#666" font-family="Arial" font-size="10" text-anchor="middle">All systems operational</text>
  <text x="150" y="520" fill="#999" font-family="Arial" font-size="8" text-anchor="middle">Last updated: Just now</text>
</svg>
