<svg width="250" height="450" xmlns="http://www.w3.org/2000/svg">
  <rect width="250" height="450" fill="#1f1f1f" rx="15"/>
  <rect x="5" y="25" width="240" height="400" fill="#ffffff" rx="10"/>
  
  <-v Status bar -->
  <rect x="10" y="30" width="230" height="20" fill="#000000"/>
  <text x="15" y="45" fill="#ffffff" font-family="Arial" font-size="10">📱 9:41 AM</text>
  <text x="225" y="45" fill="#ffffff" font-family="Arial" font-size="10" text-anchor="end">100%🔋</text>
  
  <-v App header -->
  <rect x="10" y="55" width="230" height="40" fill="#ff9900"/>
  <text x="125" y="80" fill="#ffffff" font-family="Arial" font-size="14" text-anchor="middle" font-weight="bold">Push Notifications</text>
  
  <-v Main content -->
  <text x="125" y="120" fill="#333" font-family="Arial" font-size="12" text-anchor="middle" font-weight="bold">Welcome to AWS Push Demo</text>
  
  <-v Device token card -->
  <rect x="20" y="140" width="210" height="60" fill="#f8f9fa" stroke="#dee2e6" rx="5"/>
  <text x="25" y="160" fill="#333" font-family="Arial" font-size="10" font-weight="bold">Device Token:</text>
  <text x="25" y="175" fill="#666" font-family="monospace" font-size="8">fGzj7X2mQ4kL9pM3nR5s...</text>
  <text x="25" y="190" fill="#28a745" font-family="Arial" font-size="9">✓ Registered with Firebase</text>
  
  <-v Subscription status -->
  <rect x="20" y="210" width="210" height="50" fill="#d4edda" stroke="#c3e6cb" rx="5"/>
  <text x="25" y="230" fill="#155724" font-family="Arial" font-size="10" font-weight="bold">Subscription Status:</text>
  <text x="25" y="245" fill="#155724" font-family="Arial" font-size="9">✓ Subscribed to 'push-notifications' topic</text>
  
  <-v Action buttons -->
  <rect x="30" y="280" width="190" height="35" fill="#007bff" rx="17"/>
  <text x="125" y="302" fill="#ffffff" font-family="Arial" font-size="11" text-anchor="middle">Send Test Notification</text>
  
  <rect x="30" y="325" width="190" height="35" fill="#28a745" rx="17"/>
  <text x="125" y="347" fill="#ffffff" font-family="Arial" font-size="11" text-anchor="middle">Subscribe to Topic</text>
  
  <-v Stats -->
  <text x="125" y="385" fill="#666" font-family="Arial" font-size="10" text-anchor="middle">Notifications Received: 24</text>
  <text x="125" y="400" fill="#666" font-family="Arial" font-size="10" text-anchor="middle">Last received: 2 minutes ago</text>
</svg>
