<svg width="250" height="450" xmlns="http://www.w3.org/2000/svg">
  <rect width="250" height="450" fill="#2196f3" rx="15"/>
  <rect x="5" y="25" width="240" height="400" fill="#ffffff" rx="10"/>
  
  <-v Notification overlay -->
  <rect x="10" y="30" width="230" height="80" fill="#333333" rx="10"/>
  
  <-v App icon in notification -->
  <circle cx="30" cy="55" r="10" fill="#ff9900"/>
  <text x="30" y="60" fill="#ffffff" font-family="Arial" font-size="8" text-anchor="middle">🔔</text>
  
  <-v Notification text -->
  <text x="50" y="50" fill="#ffffff" font-family="Arial" font-size="11" font-weight="bold">AWS Push Notifications</text>
  <text x="50" y="65" fill="#cccccc" font-family="Arial" font-size="10">Test notification sent successfully!</text>
  <text x="50" y="80" fill="#aaaaaa" font-family="Arial" font-size="9">Lambda function executed at 9:41 AM</text>
  <text x="50" y="95" fill="#888888" font-family="Arial" font-size="8">Tap to open app</text>
  
  <-v App content behind notification -->
  <rect x="10" y="120" width="230" height="40" fill="#ff9900"/>
  <text x="125" y="145" fill="#ffffff" font-family="Arial" font-size="14" text-anchor="middle" font-weight="bold">Push Demo Active</text>
  
  <-v Lambda execution info -->
  <rect x="20" y="170" width="210" height="80" fill="#f8f9fa" stroke="#dee2e6" rx="5"/>
  <text x="25" y="190" fill="#333" font-family="Arial" font-size="10" font-weight="bold">Lambda Execution Log:</text>
  <text x="25" y="205" fill="#28a745" font-family="monospace" font-size="8">✓ Function invoked successfully</text>
  <text x="25" y="220" fill="#666" font-family="monospace" font-size="8">• SNS message published</text>
  <text x="25" y="235" fill="#666" font-family="monospace" font-size="8">• FCM delivery confirmed</text>
  <text x="25" y="245" fill="#666" font-family="Arial" font-size="8">Duration: 142ms | Memory: 64MB</text>
  
  <-v Delivery status -->
  <rect x="20" y="260" width="210" height="60" fill="#d4edda" stroke="#c3e6cb" rx="5"/>
  <text x="25" y="280" fill="#155724" font-family="Arial" font-size="10" font-weight="bold">Delivery Status:</text>
  <text x="25" y="295" fill="#155724" font-family="Arial" font-size="9">✓ Message delivered to device</text>
  <text x="25" y="310" fill="#155724" font-family="Arial" font-size="9">✓ User interaction recorded</text>
  
  <-v Test button -->
  <rect x="30" y="340" width="190" height="35" fill="#dc3545" rx="17"/>
  <text x="125" y="362" fill="#ffffff" font-family="Arial" font-size="11" text-anchor="middle">Send Another Test</text>
  
  <-v Stats -->
  <text x="125" y="390" fill="#666" font-family="Arial" font-size="9" text-anchor="middle">Total notifications sent: 1,247</text>
  <text x="125" y="405" fill="#666" font-family="Arial" font-size="9" text-anchor="middle">Success rate: 99.8%</text>
</svg>
